<svg width="71" height="71" viewBox="0 0 71 71" fill="none" xmlns="http://www.w3.org/2000/svg">
<path d="M35.9445 0.444336C16.6163 0.444336 0.944458 16.1162 0.944458 35.4443C0.944458 54.7725 16.6163 70.4443 35.9445 70.4443C55.2726 70.4443 70.9445 54.7725 70.9445 35.4443C70.9445 16.1162 55.2726 0.444336 35.9445 0.444336ZM48.8663 48.7412L43.7101 48.7178L35.9445 39.46L28.1866 48.71L23.0226 48.7334C22.6788 48.7334 22.3976 48.46 22.3976 48.1084C22.3976 47.96 22.4523 47.8193 22.546 47.7021L32.7101 35.5928L22.546 23.4912C22.4516 23.3767 22.3992 23.2334 22.3976 23.085C22.3976 22.7412 22.6788 22.46 23.0226 22.46L28.1866 22.4834L35.9445 31.7412L43.7023 22.4912L48.8585 22.4678C49.2023 22.4678 49.4835 22.7412 49.4835 23.0928C49.4835 23.2412 49.4288 23.3818 49.3351 23.499L39.1866 35.6006L49.3429 47.71C49.4366 47.8271 49.4913 47.9678 49.4913 48.1162C49.4913 48.46 49.2101 48.7412 48.8663 48.7412Z" fill="#FF4D4F"/>
</svg>
