<svg width="254" height="294" viewBox="0 0 254 294" fill="none" xmlns="http://www.w3.org/2000/svg">
<path fill-rule="evenodd" clip-rule="evenodd" d="M0.255005 127.8V125.69C0.255005 56.274 56.528 0 125.945 0H128.055C197.471 0 253.745 56.274 253.745 125.69V127.8C253.745 197.217 197.471 253.49 128.055 253.49H125.945C56.528 253.49 0.255005 197.217 0.255005 127.8Z" fill="#E4EBF7"/>
<path fill-rule="evenodd" clip-rule="evenodd" d="M40.244 131.707C40.1342 132.796 39.8112 133.852 39.2932 134.816C38.7752 135.78 38.0724 136.632 37.2249 137.325C36.3775 138.017 35.402 138.535 34.3542 138.851C33.3064 139.166 32.2067 139.272 31.118 139.162C30.0292 139.052 28.9728 138.729 28.0089 138.211C27.0451 137.693 26.1927 136.99 25.5004 136.143C24.8081 135.296 24.2896 134.32 23.9743 133.272C23.659 132.224 23.5532 131.125 23.663 130.036C23.8865 127.839 24.9732 125.821 26.6841 124.424C28.3951 123.028 30.5904 122.368 32.7877 122.589C34.9849 122.811 37.0044 123.896 38.4023 125.605C39.8003 127.315 40.4623 129.51 40.243 131.707" fill="white"/>
<path d="M48.92 147.483L36.186 158.344M37.445 135.189L47.998 141.172L37.445 135.189Z" stroke="white" stroke-width="2"/>
<path fill-rule="evenodd" clip-rule="evenodd" d="M40.365 160.415C40.2958 161.165 40.0787 161.894 39.7262 162.56C39.3738 163.226 38.8929 163.816 38.3115 164.295C37.73 164.774 37.0594 165.133 36.3384 165.351C35.6174 165.57 34.8603 165.644 34.1107 165.568C33.3611 165.492 32.6338 165.269 31.971 164.911C31.3081 164.553 30.7228 164.067 30.2487 163.481C29.7745 162.896 29.4211 162.222 29.2087 161.499C28.9962 160.777 28.9291 160.019 29.011 159.27C29.1748 157.774 29.9228 156.403 31.0924 155.456C32.262 154.509 33.7584 154.063 35.2557 154.214C36.753 154.365 38.1301 155.101 39.087 156.262C40.044 157.424 40.5033 158.916 40.365 160.415ZM58.198 144.199C58.1257 144.952 57.9051 145.684 57.5492 146.352C57.1932 147.02 56.7087 147.611 56.1237 148.092C55.5386 148.572 54.8644 148.932 54.1398 149.151C53.4152 149.37 52.6545 149.443 51.9014 149.368C51.1482 149.292 50.4175 149.068 49.7511 148.709C49.0848 148.35 48.4959 147.862 48.0184 147.275C47.5408 146.688 47.184 146.012 46.9684 145.286C46.7528 144.561 46.6827 143.8 46.762 143.047C46.9178 141.533 47.6679 140.142 48.8477 139.18C50.0276 138.219 51.5409 137.764 53.0554 137.917C54.5699 138.07 55.962 138.817 56.9261 139.995C57.8903 141.173 58.3477 142.685 58.198 144.2V144.199ZM99.911 27.033L129.935 27.02C130.542 27.0197 131.142 26.9 131.702 26.6676C132.263 26.4352 132.772 26.0948 133.201 25.6657C133.629 25.2366 133.969 24.7273 134.201 24.1667C134.433 23.6062 134.552 23.0056 134.552 22.399C134.552 21.7924 134.432 21.1918 134.2 20.6315C133.967 20.0712 133.627 19.5622 133.198 19.1334C132.769 18.7047 132.259 18.3647 131.699 18.1328C131.138 17.9009 130.538 17.7817 129.931 17.782L99.907 17.795C98.6987 17.8206 97.5484 18.3188 96.7031 19.1827C95.8578 20.0466 95.3846 21.2073 95.3851 22.4159C95.3857 23.6246 95.8598 24.7849 96.7059 25.648C97.552 26.5112 98.7026 27.0084 99.911 27.033ZM111.395 45.495L141.418 45.482C142.033 45.4945 142.644 45.3842 143.215 45.1576C143.787 44.931 144.307 44.5925 144.746 44.1622C145.185 43.7318 145.534 43.2181 145.772 42.6513C146.01 42.0844 146.132 41.4757 146.132 40.8609C146.132 40.2461 146.009 39.6376 145.77 39.0709C145.532 38.5043 145.183 37.9909 144.743 37.5609C144.304 37.1309 143.783 36.7929 143.211 36.5668C142.64 36.3407 142.029 36.2309 141.414 36.244L111.39 36.257C110.165 36.2575 108.99 36.7447 108.124 37.6113C107.259 38.4779 106.772 39.6529 106.773 40.878C106.774 42.103 107.261 43.2777 108.127 44.1435C108.994 45.0094 110.169 45.4955 111.394 45.495" fill="white"/>
<path fill-rule="evenodd" clip-rule="evenodd" d="M113.785 27.02V27.018L129.675 27.011C128.45 27.0116 127.275 27.4989 126.41 28.3656C125.544 29.2323 125.058 30.4075 125.059 31.6325C125.059 32.8575 125.547 34.0321 126.413 34.8979C127.28 35.7636 128.455 36.2497 129.68 36.249L113.788 36.256V36.254C114.996 36.2283 116.146 35.7304 116.991 34.8669C117.836 34.0034 118.309 32.8432 118.308 31.635C118.307 30.4269 117.834 29.2671 116.988 28.4043C116.142 27.5416 114.992 27.0446 113.784 27.02H113.785ZM150.422 69.69H146.443C145.178 69.686 143.966 69.1816 143.071 68.287C142.177 67.3923 141.673 66.1801 141.669 64.915C141.673 63.65 142.177 62.4378 143.071 61.5433C143.966 60.6488 145.178 60.1447 146.443 60.141H150.422C151.687 60.1447 152.899 60.6488 153.794 61.5433C154.689 62.4377 155.193 63.6499 155.197 64.915C155.193 66.1803 154.689 67.3927 153.794 68.2873C152.9 69.182 151.687 69.6863 150.422 69.69Z" fill="white"/>
<path fill-rule="evenodd" clip-rule="evenodd" d="M171.942 29.833C171.942 13.441 185.231 0.153015 201.623 0.153015C218.015 0.153015 231.303 13.441 231.303 29.833C231.303 46.226 218.015 59.514 201.623 59.514C185.231 59.514 171.943 46.226 171.943 29.834" fill="#FF603B"/>
<path fill-rule="evenodd" clip-rule="evenodd" d="M203.812 19.034L203.136 34.069C203.122 34.4607 202.956 34.8317 202.674 35.1038C202.392 35.3759 202.015 35.528 201.623 35.528C201.231 35.528 200.854 35.3759 200.572 35.1038C200.29 34.8317 200.124 34.4607 200.11 34.069L199.435 19.034C199.424 18.7398 199.473 18.4464 199.578 18.1713C199.683 17.8963 199.842 17.6453 200.047 17.4333C200.251 17.2213 200.496 17.0527 200.767 16.9375C201.038 16.8223 201.329 16.7629 201.623 16.7629C201.918 16.7629 202.209 16.8223 202.48 16.9375C202.751 17.0527 202.996 17.2213 203.2 17.4333C203.405 17.6453 203.564 17.8963 203.669 18.1713C203.774 18.4464 203.823 18.7398 203.812 19.034ZM203.548 38.412C204.061 38.889 204.318 39.512 204.318 40.282C204.318 41.052 204.061 41.675 203.548 42.189C202.998 42.665 202.338 42.922 201.605 42.922C201.257 42.9282 200.912 42.8631 200.59 42.7307C200.269 42.5983 199.977 42.4013 199.735 42.152C199.185 41.638 198.929 41.016 198.929 40.282C198.929 39.512 199.185 38.889 199.735 38.412C200.248 37.899 200.872 37.679 201.605 37.679C202.375 37.679 203.035 37.899 203.548 38.412Z" fill="white"/>
<path fill-rule="evenodd" clip-rule="evenodd" d="M119.555 132.874C123.981 132.276 123.167 131.67 123.634 128.096C124.309 122.916 120.526 111.161 115.372 102.978C114.284 92.258 102.774 91.738 102.774 91.738C102.774 91.738 107.086 96.633 106.97 107.937C108.368 113.18 107.774 122.387 107.774 122.387C107.774 122.387 113.029 133.756 119.554 132.874" fill="#FFB594"/>
<path fill-rule="evenodd" clip-rule="evenodd" d="M101.199 91.209C101.199 91.209 102.662 90.626 104.41 91.791C112.49 93.189 114.778 98.497 115.71 103.159C117.574 104.441 117.574 105.489 117.574 106.655C117.939 107.432 119.089 109.685 119.089 109.685C119.089 109.685 111.864 111.433 108.135 116.443C106.736 110.033 101.199 91.208 101.199 91.208" fill="white"/>
<path fill-rule="evenodd" clip-rule="evenodd" d="M94.263 90.099L95.282 84.284L86.0519 72.41L80.819 77.991L78.226 87.854C78.226 87.854 86.616 92.982 94.263 90.1" fill="#FFB594"/>
<path fill-rule="evenodd" clip-rule="evenodd" d="M83.1859 77.8149C83.1859 77.8149 78.6289 74.9469 80.7409 70.9229C82.3729 67.8159 85.2779 72.0619 85.2779 72.0619C85.2779 72.0619 85.8019 68.3999 88.4169 68.3999C88.9399 67.3539 89.9859 64.2159 89.9859 64.2159C89.9859 64.2159 101.493 66.8309 103.586 67.3539C103.585 72.5839 101.269 86.8829 95.7019 87.3229C86.7619 88.0289 83.1859 77.8149 83.1859 77.8149Z" fill="#FFC6A0"/>
<path fill-rule="evenodd" clip-rule="evenodd" d="M103.226 71.842C105.842 69.749 106.715 62.067 106.715 62.067C106.715 62.067 104.223 61.575 100.039 60.005C95.3309 57.913 87.172 55.234 82.464 60.987C72.924 65.397 80.402 80.917 80.402 80.917L83.1309 77.88C83.1309 77.88 79.1749 74.576 81.0389 71.603C83.2219 68.123 84.9819 72.683 84.9819 72.683C84.9819 72.683 85.622 70.283 88.582 69.323C88.938 68.609 89.6219 66.633 90.0219 65.451C90.1077 65.1962 90.2854 64.9826 90.5202 64.8519C90.7551 64.7211 91.0302 64.6826 91.292 64.744C93.702 65.304 100.015 66.774 102.709 67.42C103.233 67.546 103.585 68.039 103.534 68.576L103.226 71.842Z" fill="#520038"/>
<path fill-rule="evenodd" clip-rule="evenodd" d="M101.475 76.113C101.371 76.726 100.89 77.157 100.399 77.073C99.909 76.991 99.594 76.427 99.697 75.813C99.801 75.2 100.282 74.769 100.773 74.852C101.264 74.935 101.578 75.499 101.475 76.112V76.113ZM94.515 74.673C94.411 75.286 93.93 75.717 93.439 75.633C92.949 75.551 92.634 74.987 92.737 74.373C92.841 73.76 93.322 73.329 93.813 73.413C94.304 73.495 94.618 74.059 94.515 74.673Z" fill="#552950"/>
<path d="M99.4611 73.243L98.5611 74.863L98.2611 79.243H96.0211" stroke="#DB836E" stroke-width="1.063" stroke-linecap="round" stroke-linejoin="round"/>
<path d="M100.181 72.883C100.181 72.883 101.981 72.163 102.701 73.423" stroke="#5C2552" stroke-width="1.117" stroke-linecap="round" stroke-linejoin="round"/>
<path d="M81.6219 72.683C81.6219 72.683 82.102 71.563 82.742 71.963C83.382 72.363 84.0219 73.403 83.3019 73.963C82.5819 74.523 83.462 75.643 83.462 75.643" stroke="#DB836E" stroke-width="1.117" stroke-linecap="round" stroke-linejoin="round"/>
<path d="M92.5811 71.323C92.5811 71.323 94.4211 72.443 96.7411 72.283" stroke="#5C2552" stroke-width="1.117" stroke-linecap="round" stroke-linejoin="round"/>
<path d="M83.942 79.643C83.942 79.643 85.728 86.19 93.204 87.597M92.981 80.203C92.981 80.203 95.221 81.403 97.381 81.403L92.981 80.203ZM93.941 82.763C93.941 82.763 94.901 83.163 95.461 83.083L93.941 82.763Z" stroke="#DB836E" stroke-width="1.063" stroke-linecap="round" stroke-linejoin="round"/>
<path d="M95.803 91.262C95.803 91.262 94.735 94.083 87.505 93.367C80.275 92.65 77.215 88.323 77.215 88.323" stroke="#E4EBF7" stroke-width="1.136" stroke-linecap="round" stroke-linejoin="round"/>
<path fill-rule="evenodd" clip-rule="evenodd" d="M78.381 87.077C78.381 87.077 84.907 92.049 94.851 89.563C94.851 89.563 104.428 90.583 106.387 94.885C111.747 106.655 106.93 131.72 106.387 134.847C109.883 138.902 105.921 143.33 105.921 143.33C90.297 139.782 70.111 142.73 70.111 142.73C65.262 139.184 68.888 133.686 68.888 133.686L62.635 109.919C60.15 94.692 63.468 90.116 66.184 89.176C69.214 88.127 74.224 87.894 74.224 87.894C74.72 87.836 75.304 87.818 75.594 87.661C77.954 86.379 78.381 87.078 78.381 87.078" fill="white"/>
<path fill-rule="evenodd" clip-rule="evenodd" d="M66.083 89.409C66.083 89.409 59.208 89.874 58.493 97.565C58.027 106.422 61.523 108.519 61.523 108.519C61.523 108.519 67.598 130.621 78.319 131.476C86.709 129.3 83.077 124.774 82.98 120.056C82.747 108.752 75.872 103.159 75.872 103.159C75.872 103.159 71.66 89.409 66.083 89.409Z" fill="#FFC6A0"/>
<path fill-rule="evenodd" clip-rule="evenodd" d="M71.9709 123.824C71.9709 123.824 72.8259 135.088 81.7989 130.31C86.5639 127.774 89.3799 116.482 91.5879 107.742C93.0439 101.974 94.1679 95.545 94.1679 95.545L89.1949 93.836C89.1949 93.836 86.7869 99.352 81.4259 106.111C77.0909 111.578 72.2819 117.221 71.9709 123.824Z" fill="#FFC6A0"/>
<path d="M108.718 104.79C108.718 104.79 110.465 107.514 106.387 135.325C108.763 137.541 107.44 141.337 106.154 142.835" stroke="#E4EBF7" stroke-width="1.085" stroke-linecap="round" stroke-linejoin="round"/>
<path fill-rule="evenodd" clip-rule="evenodd" d="M123.517 131.126C123.517 131.126 123.09 133.858 111.747 133.107C96.56 132.101 86.421 129.857 86.421 129.857L87.354 124.057C87.354 124.057 88.077 124.272 97.064 123.989C108.951 123.616 115.778 117.919 122.028 122.967C126.067 126.23 123.517 131.127 123.517 131.127" fill="#FFC6A0"/>
<path fill-rule="evenodd" clip-rule="evenodd" d="M70.495 90.573C70.495 90.573 64.902 85.834 59.441 93.253C56.123 100.476 59.958 108.537 62.105 112.831C61.795 116.56 64.435 117.142 64.435 117.142C64.435 117.142 64.543 118.037 65.951 119.822C70.029 112.792 72.671 110.656 79.662 107.276C79.334 106.62 77.785 104.011 77.837 103.509C78.012 101.819 76.555 100.886 76.555 100.886C76.555 100.886 76.269 100.73 75.39 98.148C74.602 95.835 73.354 92.971 70.495 90.573Z" fill="white"/>
<path fill-rule="evenodd" clip-rule="evenodd" d="M90.4871 287.626C90.4871 287.626 95.3421 289.934 98.8001 288.781C101.988 287.718 103.92 289.536 106.802 290.112C109.683 290.689 114.571 291.355 120.009 288.688C119.892 282.46 112.223 284.189 106.491 281.1C103.596 279.54 102.215 275.764 102.425 271.156H91.7991C91.7991 271.156 90.2261 283.046 90.4871 287.626Z" fill="#CBD1D1"/>
<path fill-rule="evenodd" clip-rule="evenodd" d="M90.462 287.432C90.462 287.432 93.207 288.869 98.101 288.17C101.557 287.676 101.324 288.83 105.519 289.452C109.714 290.073 118.611 289.258 119.853 288.326C120.319 289.568 119.465 290.656 119.465 290.656C119.465 290.656 117.756 291.338 114.027 291.588C111.732 291.742 105.929 291.864 103.887 290.967C101.867 289.413 98.993 289.452 97.827 290.733C93.4 291.808 90.643 290.423 90.643 290.423L90.462 287.432Z" fill="#2B0849"/>
<path fill-rule="evenodd" clip-rule="evenodd" d="M98.684 271.856H102.18C102.18 271.856 102.063 279.43 107.307 281.527C102.063 282.227 97.635 278.925 98.684 271.856Z" fill="#A4AABA"/>
<path fill-rule="evenodd" clip-rule="evenodd" d="M44.68 271.645C44.68 271.645 42.472 279.419 39.978 284.544C38.094 288.418 35.55 292.398 45.707 292.398C52.677 292.398 55.092 291.895 53.489 285.481C51.885 279.066 53.768 271.645 53.768 271.645H44.68Z" fill="#CBD1D1"/>
<path fill-rule="evenodd" clip-rule="evenodd" d="M38.321 289.876C38.321 289.876 40.519 291.101 45.275 291.101C51.651 291.101 53.921 289.371 53.921 289.371C53.921 289.371 54.551 290.539 53.272 291.641C52.232 292.538 49.502 293.309 45.527 293.262C41.18 293.212 39.412 292.669 38.465 292.038C37.601 291.461 37.745 290.381 38.321 289.876Z" fill="#2B0849"/>
<path fill-rule="evenodd" clip-rule="evenodd" d="M45.5989 273.64C45.5989 273.64 45.6339 275.232 45.2699 276.71C44.9049 278.2 44.1399 279.965 44.0859 281.05C44.0249 282.256 48.8409 282.707 49.4889 281.086C50.1389 279.464 50.8459 274.349 51.4949 273.484C52.1429 272.619 46.3549 271.262 45.5989 273.64Z" fill="#A4AABA"/>
<path fill-rule="evenodd" clip-rule="evenodd" d="M89.7309 277.169L103.63 277.264C103.63 277.264 104.979 220.621 105.555 210.355C106.131 200.088 109.478 165.303 106.597 144.77L93.5599 144.101L69.8229 144.911C69.8229 144.911 69.3709 149.031 68.5799 155.276C68.5149 155.791 67.8719 156.15 67.8029 156.693C67.7249 157.301 68.2419 158.1 68.1349 158.737C65.6799 173.364 62.3379 191.473 59.8789 205.574C59.7579 206.267 58.5969 206.622 58.3639 208.37C58.3219 208.684 58.5839 209.954 58.4799 210.235C51.3399 229.708 46.2779 262.836 42.8199 277.425L57.9959 277.41C57.9959 277.41 60.2779 267.265 62.1809 258.539C65.1029 245.15 86.193 170.219 86.193 170.219L89.3259 169.265L89.1679 217.833C89.1679 217.833 88.9349 219.115 89.5179 219.931C90.1009 220.746 88.937 221.098 89.11 222.262L89.5179 224.126C89.5179 224.126 89.0519 231.584 88.5859 236.478C88.1189 241.373 89.7309 277.168 89.7309 277.168" fill="#7BB2F9"/>
<path d="M96.279 222.133C96.279 222.133 99.1599 220.981 102.619 218.099M64.825 218.48C66.022 218.579 69.0199 216.383 72.0499 213.353L64.825 218.48Z" stroke="#648BD8" stroke-width="1.085" stroke-linecap="round" stroke-linejoin="round"/>
<path d="M97.228 218.972C97.228 218.972 100.11 217.819 103.568 214.938" stroke="#648BD8" stroke-width="1.032" stroke-linecap="round" stroke-linejoin="round"/>
<path d="M44.4969 273.326H58.3249M63.4269 221.743C63.4269 221.743 66.1509 221.129 70.1859 218.247L63.4269 221.743ZM75.1579 145.765C74.8769 148.991 75.468 154.621 70.652 155.243L75.1579 145.765ZM93.4369 143.943C93.4369 143.943 93.5519 158.5 92.0929 159.593C89.7879 161.323 88.986 161.613 88.986 161.613L93.4369 143.943ZM89.4519 144.522C89.4519 144.522 89.7209 157.666 88.4419 169.61L89.4519 144.522ZM83.7799 170.309C83.7799 170.309 90.5899 169.258 92.8959 169.258L83.7799 170.309ZM46.2809 269.644L45.3889 274.182L46.2809 269.644ZM47.1919 262.888L46.3769 267.045L47.1919 262.888ZM62.9799 202.102C62.6499 203.72 62.8779 204.006 62.5309 205.54C62.5309 205.54 59.7749 207.443 60.2409 209.463C60.7069 211.483 59.9309 212.887 55.7359 226.715C53.9739 232.522 51.5029 245.637 49.5709 254.993C49.5409 255.137 49.0499 257.639 48.4309 260.793L62.9799 202.102ZM64.4129 193.735C64.1179 195.393 63.8129 197.045 63.4959 198.673L64.4129 193.735ZM71.5849 146.386L70.3409 157.263C70.3409 157.263 69.2009 157.418 69.8219 159.593C69.9389 160.992 67.0439 175.983 64.4399 191.208L71.5849 146.386Z" stroke="#648BD8" stroke-width="1.085" stroke-linecap="round" stroke-linejoin="round"/>
<path fill-rule="evenodd" clip-rule="evenodd" d="M106.435 141.716C103.407 141.227 87.61 138.972 70.216 141.916C70.0661 141.942 69.9307 142.022 69.8354 142.14C69.74 142.259 69.6912 142.408 69.698 142.56C69.761 143.867 69.742 144.903 69.713 145.555C69.709 145.647 69.7255 145.738 69.7612 145.823C69.7969 145.907 69.8511 145.982 69.9197 146.043C69.9883 146.104 70.0696 146.149 70.1577 146.175C70.2458 146.2 70.3385 146.206 70.429 146.191C73.732 145.657 87.466 143.779 106.093 145.925C106.44 145.965 106.753 145.711 106.785 145.365C106.909 144.018 106.945 142.94 106.955 142.336C106.958 142.187 106.907 142.043 106.811 141.929C106.716 141.815 106.582 141.739 106.435 141.716Z" fill="#192064"/>
<path fill-rule="evenodd" clip-rule="evenodd" d="M96.6531 144.863L96.6561 139.761C96.6573 139.543 96.5736 139.332 96.4227 139.174C96.2718 139.016 96.0654 138.923 95.8471 138.914C93.1344 138.813 90.419 138.808 87.7061 138.9C87.4864 138.908 87.2783 139 87.1254 139.158C86.9725 139.316 86.8867 139.527 86.8861 139.747L86.8831 144.844C86.8831 145.32 87.2711 145.701 87.7471 145.689C90.2251 145.625 92.9131 145.622 95.7771 145.706C95.8903 145.71 96.0032 145.691 96.109 145.65C96.2148 145.61 96.3114 145.548 96.3931 145.47C96.4747 145.391 96.5398 145.297 96.5845 145.193C96.6291 145.088 96.6525 144.976 96.6531 144.863Z" fill="white"/>
<path fill-rule="evenodd" clip-rule="evenodd" d="M95.494 143.895L95.496 140.7C95.4974 140.526 95.4311 140.359 95.311 140.233C95.1909 140.108 95.0266 140.034 94.853 140.028C92.953 139.967 90.912 139.955 88.759 140.018C88.5842 140.023 88.4183 140.097 88.2963 140.222C88.1743 140.347 88.1057 140.515 88.105 140.69L88.103 143.882C88.103 144.258 88.408 144.559 88.783 144.551C90.642 144.509 92.657 144.508 94.803 144.563C95.179 144.573 95.493 144.272 95.494 143.895Z" fill="#192064"/>
<path d="M90.6951 170.003L91.6271 216.383C91.6271 216.383 92.3271 218.014 91.3941 219.179C90.4621 220.345 93.9581 219.879 92.3261 221.509C90.6961 223.142 93.2591 222.675 92.3261 225.006C91.7081 226.552 91.2951 246.927 91.1881 261.519M90.3571 273.121H103.176H90.3571ZM91.4711 269.36C91.4771 272.879 91.3991 274.91 91.4711 275.652V269.36ZM91.1781 263.073C91.1691 264.672 91.1621 265.631 91.1621 267.578L91.1781 263.073Z" stroke="#648BD8" stroke-width="1.085" stroke-linecap="round" stroke-linejoin="round"/>
<path d="M77.8529 89.641C77.8529 89.641 85.5439 95.778 94.3999 92.361M73.9909 98.264L76.2049 102.576C76.2049 102.576 78.3029 103.392 78.0699 105.256L78.8859 107.47L73.9909 98.264ZM64.5519 116.21C64.7849 115.278 66.7279 109.063 77.1369 105.722L64.5519 116.21Z" stroke="#E4EBF7" stroke-width="1.085" stroke-linecap="round" stroke-linejoin="round"/>
<path fill-rule="evenodd" clip-rule="evenodd" d="M92.2289 86.553C92.2289 86.553 97.7049 85.737 99.8029 82.008C101.1 81.663 100.523 84.22 99.4729 85.679C98.7729 86.65 98.4629 87.233 98.4629 87.233C98.4629 87.233 98.6569 87.543 98.6179 88.049C98.5649 88.746 98.4429 88.702 98.3459 89.097C98.2649 89.432 98.4539 89.754 98.3459 90.146C98.2999 90.316 98.1479 90.646 97.9639 91.024C97.8439 91.273 97.8919 91.711 97.7639 91.972C97.5329 92.441 96.2019 93.842 95.1419 94.827C91.3159 98.381 90.1239 96.471 89.1409 94.419C88.2469 92.554 88.4799 89.292 88.2669 87.544C87.9169 84.63 85.6449 84.514 86.3439 83.115C86.6869 82.43 89.2139 83.805 89.6069 84.863C90.3639 86.903 92.5589 86.67 92.2289 86.553Z" fill="#FFC6A0"/>
<path d="M100.055 82.028C99.59 82.105 99.705 82.3 99.085 83.271C98.463 84.242 94.268 86.203 92.695 86.495C90.106 86.975 90.417 84.935 88.441 83.64C86.751 82.533 84.879 83.002 87.043 85.038C88.033 85.97 87.975 86.145 88.441 88.243C88.776 89.749 87.801 91.913 89.141 93.836" stroke="#DB836E" stroke-width="0.774" stroke-linecap="round" stroke-linejoin="round"/>
<path d="M79.798 108.272C77.698 111.198 75.532 114.447 74.241 117.034" stroke="#E59788" stroke-width="0.774" stroke-linecap="round" stroke-linejoin="round"/>
<path fill-rule="evenodd" clip-rule="evenodd" d="M87.9751 124.367C87.9751 124.367 85.8771 122.425 82.8481 121.648C79.8181 120.871 79.2741 121.493 77.3321 121.726C75.3901 121.959 73.4471 120.794 73.6801 122.426C73.9131 124.056 78.7301 123.436 78.8861 124.523C79.0411 125.61 72.5161 127.319 70.5731 126.698C69.7961 127.475 71.0391 128.562 72.5931 128.873C72.8261 130.427 74.8461 130.427 74.8461 130.427C74.8461 130.427 75.5451 131.437 77.4871 131.515C79.9731 132.835 86.4211 130.815 88.4411 129.961C90.4611 129.106 87.9751 124.367 87.9751 124.367Z" fill="#FFC6A0"/>
<path d="M79.119 107.703C79.119 107.703 70.729 110.461 65.951 119.823M73.6801 122.425C73.6801 122.425 74.3401 123.552 76.8471 123.843C79.1621 124.113 79.41 124.426 79.41 124.426C79.41 124.426 76.865 127.32 70.34 126.698L73.6801 122.425ZM72.6711 128.873C72.6711 128.873 76.497 128.97 77.604 128.155L72.6711 128.873ZM75.2351 130.349C75.2351 130.349 77.196 130.485 78.595 129.844L75.2351 130.349ZM77.4871 131.515C77.4871 131.515 79.2351 131.534 80.4011 131.01L77.4871 131.515ZM73.5831 121.92C73.5831 121.92 72.988 120.888 74.845 121.493C76.516 122.037 77.6781 121.548 79.9731 121.648C81.3621 121.709 83.04 121.351 83.955 121.798C85.561 122.582 87.5871 123.979 87.5871 123.979C87.5871 123.979 98.113 125.183 106.62 122.852L73.5831 121.92Z" stroke="#E59788" stroke-width="0.774" stroke-linecap="round" stroke-linejoin="round"/>
<path d="M109.533 112.132C109.533 112.132 112.913 108.519 117.108 107.47" stroke="#E4EBF7" stroke-width="1.085" stroke-linecap="round" stroke-linejoin="round"/>
<path d="M107.63 122.605C107.63 122.605 117.327 119.86 119.075 121.725" stroke="#E59788" stroke-width="0.774" stroke-linecap="round" stroke-linejoin="round"/>
<path d="M133.23 169.638L129.275 165.683M194.86 83.255L198.831 79.369L194.86 83.255ZM187.421 90.532L191.157 86.877L187.421 90.532ZM192.007 83.806L187.545 79.246L192.007 83.806ZM198.708 90.656L194.575 86.431L198.708 90.656ZM129.511 162.673L133.229 158.955L129.511 162.673ZM122.546 169.638L126.044 166.14L122.546 169.638ZM126.816 163.225L122.546 158.955L126.816 163.225Z" stroke="#BFCDDD" stroke-width="2" stroke-linecap="round" stroke-linejoin="round"/>
<path fill-rule="evenodd" clip-rule="evenodd" d="M190.411 211.378H188.807C187.744 211.375 186.726 210.951 185.974 210.2C185.223 209.448 184.799 208.43 184.796 207.367V175.279C184.799 174.217 185.223 173.199 185.974 172.447C186.726 171.696 187.744 171.272 188.806 171.269H190.411C191.474 171.272 192.492 171.696 193.243 172.447C193.995 173.198 194.419 174.216 194.422 175.279V207.367C194.419 208.429 193.995 209.447 193.244 210.199C192.492 210.95 191.474 211.374 190.412 211.377" fill="#A3B4C6"/>
<path fill-rule="evenodd" clip-rule="evenodd" d="M238.079 212.576C238.079 213.852 237.572 215.077 236.669 215.979C235.767 216.882 234.543 217.389 233.266 217.389H146.63C145.354 217.389 144.129 216.882 143.227 215.979C142.324 215.077 141.817 213.852 141.817 212.576C141.817 211.3 142.324 210.075 143.227 209.173C144.129 208.27 145.354 207.763 146.63 207.763H233.266C234.543 207.763 235.767 208.27 236.669 209.173C237.572 210.075 238.079 211.3 238.079 212.576Z" fill="#A3B4C6"/>
<path fill-rule="evenodd" clip-rule="evenodd" d="M154.353 189.695H224.866V105.078H154.353V189.695Z" fill="#A3B4C6"/>
<path fill-rule="evenodd" clip-rule="evenodd" d="M225.183 189.695H154.035C153.185 189.692 152.37 189.353 151.769 188.752C151.168 188.151 150.83 187.336 150.827 186.486V167.519C150.829 166.669 151.168 165.854 151.769 165.253C152.37 164.651 153.185 164.312 154.035 164.309H225.183C226.033 164.312 226.848 164.651 227.45 165.252C228.051 165.854 228.39 166.669 228.392 167.519V186.486C228.389 187.336 228.05 188.151 227.449 188.753C226.847 189.354 226.032 189.693 225.182 189.695H225.183ZM225.183 130.431H154.035C153.185 130.428 152.371 130.09 151.77 129.489C151.168 128.887 150.83 128.073 150.827 127.223V108.255C150.83 107.405 151.168 106.59 151.769 105.989C152.37 105.388 153.185 105.049 154.035 105.046H225.183C226.033 105.049 226.848 105.388 227.45 105.989C228.051 106.591 228.39 107.406 228.392 108.256V127.223C228.389 128.073 228.05 128.888 227.449 129.489C226.847 130.09 226.032 130.429 225.182 130.431" fill="#BFCDDD"/>
<path fill-rule="evenodd" clip-rule="evenodd" d="M159.818 120.145C159.498 120.152 159.18 120.094 158.882 119.976C158.584 119.858 158.313 119.682 158.084 119.458C157.856 119.234 157.674 118.966 157.55 118.671C157.426 118.376 157.362 118.059 157.362 117.738C157.362 117.418 157.426 117.101 157.55 116.806C157.674 116.511 157.856 116.243 158.084 116.019C158.313 115.795 158.584 115.619 158.882 115.501C159.18 115.383 159.498 115.325 159.818 115.332C160.448 115.345 161.047 115.604 161.488 116.054C161.929 116.504 162.176 117.109 162.176 117.738C162.176 118.368 161.929 118.973 161.488 119.423C161.047 119.873 160.448 120.132 159.818 120.145ZM167.235 120.145C166.915 120.152 166.597 120.094 166.299 119.976C166.001 119.858 165.73 119.682 165.501 119.458C165.273 119.234 165.091 118.966 164.967 118.671C164.843 118.376 164.779 118.059 164.779 117.738C164.779 117.418 164.843 117.101 164.967 116.806C165.091 116.511 165.273 116.243 165.501 116.019C165.73 115.795 166.001 115.619 166.299 115.501C166.597 115.383 166.915 115.325 167.235 115.332C167.865 115.345 168.464 115.604 168.905 116.054C169.346 116.504 169.593 117.109 169.593 117.738C169.593 118.368 169.346 118.973 168.905 119.423C168.464 119.873 167.865 120.132 167.235 120.145ZM174.652 120.145C174.332 120.152 174.014 120.094 173.716 119.976C173.418 119.858 173.147 119.682 172.918 119.458C172.69 119.234 172.508 118.966 172.384 118.671C172.26 118.376 172.196 118.059 172.196 117.738C172.196 117.418 172.26 117.101 172.384 116.806C172.508 116.511 172.69 116.243 172.918 116.019C173.147 115.795 173.418 115.619 173.716 115.501C174.014 115.383 174.332 115.325 174.652 115.332C175.282 115.345 175.881 115.604 176.322 116.054C176.763 116.504 177.01 117.109 177.01 117.738C177.01 118.368 176.763 118.973 176.322 119.423C175.881 119.873 175.282 120.132 174.652 120.145ZM222.794 120.145H200.333C200.12 120.145 199.916 120.06 199.766 119.91C199.615 119.76 199.531 119.556 199.531 119.343V116.135C199.531 115.692 199.89 115.332 200.333 115.332H222.793C223.237 115.332 223.596 115.692 223.596 116.135V119.343C223.596 119.786 223.236 120.145 222.794 120.145Z" fill="white"/>
<path fill-rule="evenodd" clip-rule="evenodd" d="M225.183 160.063H154.035C153.185 160.06 152.37 159.721 151.769 159.12C151.168 158.519 150.829 157.704 150.827 156.854V137.887C150.83 137.037 151.168 136.222 151.769 135.621C152.37 135.02 153.185 134.681 154.035 134.678H225.183C226.033 134.681 226.848 135.02 227.449 135.621C228.05 136.222 228.389 137.037 228.392 137.887V156.854C228.39 157.705 228.051 158.52 227.449 159.121C226.848 159.722 226.033 160.061 225.182 160.063" fill="#BFCDDD"/>
<path d="M155.825 160.212H162.576M173.71 130.431H223.011H173.71ZM165.239 130.431H171.328H165.239ZM156.207 130.431H162.957H156.207ZM174.092 160.212H223.392H174.092ZM165.62 160.212H171.709H165.62Z" stroke="#7C90A5" stroke-width="1.124" stroke-linecap="round" stroke-linejoin="round"/>
<path fill-rule="evenodd" clip-rule="evenodd" d="M159.818 150.637C159.18 150.637 158.567 150.383 158.116 149.932C157.665 149.481 157.411 148.868 157.411 148.23C157.411 147.592 157.665 146.979 158.116 146.528C158.567 146.077 159.18 145.823 159.818 145.823C160.456 145.823 161.069 146.077 161.52 146.528C161.971 146.979 162.225 147.592 162.225 148.23C162.225 148.868 161.971 149.481 161.52 149.932C161.069 150.383 160.456 150.637 159.818 150.637ZM167.235 150.637C166.597 150.637 165.984 150.383 165.533 149.932C165.082 149.481 164.828 148.868 164.828 148.23C164.828 147.592 165.082 146.979 165.533 146.528C165.984 146.077 166.597 145.823 167.235 145.823C167.873 145.823 168.486 146.077 168.937 146.528C169.388 146.979 169.642 147.592 169.642 148.23C169.642 148.868 169.388 149.481 168.937 149.932C168.486 150.383 167.873 150.637 167.235 150.637ZM174.652 150.637C174.336 150.637 174.023 150.575 173.731 150.454C173.439 150.333 173.174 150.155 172.95 149.932C172.727 149.708 172.549 149.443 172.429 149.151C172.308 148.859 172.245 148.546 172.245 148.229C172.246 147.913 172.308 147.6 172.429 147.308C172.55 147.016 172.727 146.751 172.951 146.528C173.174 146.304 173.44 146.127 173.732 146.006C174.024 145.885 174.337 145.823 174.653 145.823C175.291 145.823 175.904 146.077 176.355 146.528C176.806 146.979 177.06 147.592 177.06 148.23C177.06 148.868 176.806 149.481 176.355 149.932C175.904 150.383 175.291 150.637 174.653 150.637H174.652ZM222.794 150.637H200.333C200.12 150.637 199.916 150.553 199.766 150.402C199.615 150.252 199.531 150.048 199.531 149.835V146.626C199.531 146.183 199.89 145.824 200.333 145.824H222.793C223.237 145.824 223.596 146.184 223.596 146.626V149.835C223.596 150.278 223.236 150.637 222.794 150.637ZM159.818 179.586C159.498 179.593 159.18 179.535 158.882 179.417C158.584 179.299 158.313 179.123 158.084 178.899C157.856 178.675 157.674 178.407 157.55 178.112C157.426 177.817 157.362 177.5 157.362 177.18C157.362 176.859 157.426 176.542 157.55 176.247C157.674 175.952 157.856 175.684 158.084 175.46C158.313 175.236 158.584 175.06 158.882 174.942C159.18 174.824 159.498 174.766 159.818 174.773C160.448 174.786 161.047 175.045 161.488 175.495C161.929 175.945 162.176 176.55 162.176 177.18C162.176 177.809 161.929 178.414 161.488 178.864C161.047 179.314 160.448 179.573 159.818 179.586ZM167.235 179.586C166.915 179.593 166.597 179.535 166.299 179.417C166.001 179.299 165.73 179.123 165.501 178.899C165.273 178.675 165.091 178.407 164.967 178.112C164.843 177.817 164.779 177.5 164.779 177.18C164.779 176.859 164.843 176.542 164.967 176.247C165.091 175.952 165.273 175.684 165.501 175.46C165.73 175.236 166.001 175.06 166.299 174.942C166.597 174.824 166.915 174.766 167.235 174.773C167.865 174.786 168.464 175.045 168.905 175.495C169.346 175.945 169.593 176.55 169.593 177.18C169.593 177.809 169.346 178.414 168.905 178.864C168.464 179.314 167.865 179.573 167.235 179.586ZM174.652 179.586C174.332 179.593 174.014 179.535 173.716 179.417C173.418 179.299 173.147 179.123 172.918 178.899C172.69 178.675 172.508 178.407 172.384 178.112C172.26 177.817 172.196 177.5 172.196 177.18C172.196 176.859 172.26 176.542 172.384 176.247C172.508 175.952 172.69 175.684 172.918 175.46C173.147 175.236 173.418 175.06 173.716 174.942C174.014 174.824 174.332 174.766 174.652 174.773C175.282 174.786 175.881 175.045 176.322 175.495C176.763 175.945 177.01 176.55 177.01 177.18C177.01 177.809 176.763 178.414 176.322 178.864C175.881 179.314 175.282 179.573 174.652 179.586ZM222.794 179.586H200.333C200.12 179.586 199.916 179.502 199.766 179.351C199.615 179.201 199.531 178.997 199.531 178.784V175.575C199.531 175.132 199.89 174.773 200.333 174.773H222.793C223.237 174.773 223.596 175.133 223.596 175.575V178.784C223.596 179.227 223.236 179.586 222.794 179.586Z" fill="white"/>
<path fill-rule="evenodd" clip-rule="evenodd" d="M203.295 220.707H175.923C175.285 220.705 174.674 220.451 174.223 220C173.773 219.549 173.519 218.938 173.517 218.3V206.852C173.519 206.214 173.773 205.603 174.224 205.152C174.674 204.701 175.285 204.447 175.923 204.445H203.295C203.933 204.447 204.544 204.701 204.995 205.152C205.446 205.603 205.7 206.214 205.702 206.852V218.299C205.7 218.937 205.446 219.548 204.995 219.999C204.544 220.45 203.933 220.704 203.295 220.706" fill="#BFCDDD"/>
<path d="M201.305 206.816V218.336M177.514 206.816V218.336V206.816Z" stroke="#A3B4C6" stroke-width="1.124" stroke-linecap="round" stroke-linejoin="round"/>
<path fill-rule="evenodd" clip-rule="evenodd" d="M163.128 267.493C160.629 267.493 158.233 266.5 156.466 264.733C154.699 262.966 153.706 260.57 153.706 258.071V243.251C153.732 240.769 154.736 238.397 156.5 236.651C158.264 234.905 160.646 233.925 163.129 233.925C165.611 233.925 167.993 234.905 169.757 236.651C171.521 238.397 172.525 240.769 172.551 243.251V258.071C172.551 260.57 171.558 262.966 169.791 264.733C168.024 266.5 165.627 267.493 163.128 267.493Z" fill="#5BA02E"/>
<path fill-rule="evenodd" clip-rule="evenodd" d="M171.475 267.429C170.238 267.429 169.012 267.185 167.869 266.712C166.726 266.238 165.687 265.544 164.812 264.669C163.937 263.794 163.243 262.755 162.77 261.612C162.297 260.469 162.053 259.244 162.053 258.006V254.568C162.079 252.086 163.083 249.714 164.847 247.968C166.611 246.222 168.993 245.242 171.476 245.242C173.958 245.242 176.34 246.222 178.104 247.968C179.869 249.714 180.873 252.086 180.898 254.568V258.006C180.898 260.505 179.905 262.902 178.139 264.669C176.372 266.436 173.975 267.429 171.476 267.429" fill="#92C110"/>
<path fill-rule="evenodd" clip-rule="evenodd" d="M181.565 293.265H153.853C153.432 293.265 153.014 293.182 152.625 293.021C152.235 292.859 151.882 292.623 151.584 292.325C151.286 292.027 151.049 291.673 150.888 291.283C150.727 290.894 150.644 290.476 150.644 290.055V269.389C150.644 268.967 150.727 268.55 150.888 268.161C151.049 267.771 151.286 267.417 151.584 267.119C151.882 266.821 152.235 266.585 152.625 266.423C153.014 266.262 153.432 266.179 153.853 266.179H181.564C181.986 266.179 182.403 266.262 182.792 266.423C183.182 266.585 183.535 266.821 183.833 267.119C184.131 267.417 184.368 267.771 184.529 268.161C184.69 268.55 184.773 268.967 184.773 269.389V290.057C184.773 290.908 184.435 291.724 183.833 292.326C183.231 292.928 182.415 293.266 181.564 293.266" fill="#F2D7AD"/>
</svg>
