<svg width="110" height="105" viewBox="0 0 110 105" fill="none" xmlns="http://www.w3.org/2000/svg">
<path d="M93.403 35.4686H106.744V49.8451H93.403V77.3167C93.403 86.6666 93.9819 86.6388 95.1398 87.7342C96.2977 88.8295 98.6135 89.3772 102.087 89.3772C103.245 89.5141 104.258 89.3772 105.416 89.2403C106.429 89.2403 107.829 88.4647 108.553 87.7342V102.795C106.744 103.568 104.692 104.438 102.666 104.438C100.495 104.575 98.4688 104.575 96.4424 104.575C96.3068 104.575 94.0151 104.575 93.0502 104.438C90.6997 104.105 87.2042 102.864 85.0331 101.632C83.827 100.947 80.691 97.8663 80.3292 96.4971C79.2436 94.7856 78.6398 91.431 78.6398 87.8711V49.8451H65.8555V35.4686H78.6398V11.5076H93.403V35.4686Z" fill="#10239E"/>
<path fill-rule="evenodd" clip-rule="evenodd" d="M2.1709 49.8452H12.3025V102.932H28.5131V49.8452H40.5263L40.5262 35.4686H28.5131L28.5131 34.2363C28.5131 31.361 29.0921 28.6305 30.25 27.3982C31.4079 26.1659 33.4342 25.4813 36.3289 25.4813C38.9342 25.4813 41.3947 25.6182 43.8553 25.8921V11.5076L38.3553 11.5076L32.9276 11.5076C26.0525 11.5076 20.6248 14.8244 17.3683 18.0113C13.1709 22.1189 12.3025 26.8426 12.3025 33.004L12.3024 35.4686H2.17083L2.1709 49.8452ZM61.5131 56.0065H45.7368V102.932H61.5131V56.0065Z" fill="#10239E"/>
<path d="M61.5131 42.7939C61.5131 46.9647 58.0852 50.3457 53.9144 50.3457C49.7436 50.3457 46.3157 46.9646 46.3157 42.7939C46.3157 38.6231 49.7436 35.242 53.9144 35.242C58.0852 35.242 61.5131 38.6231 61.5131 42.7939Z" fill="#40A9FF"/>
</svg>
